<?xml version="1.0" encoding="UTF-8"?>
<svg width="30px" height="30px" viewBox="0 0 30 30" version="1.1" xmlns="http://www.w3.org/2000/svg" xmlns:xlink="http://www.w3.org/1999/xlink">
    <title>logo</title>
    <g id="Page-1" stroke="none" stroke-width="1" fill="none" fill-rule="evenodd">
        <g id="logo" fill-rule="nonzero">
            <path d="M11.2928,20.80005 L11.2928,17.42755 L17.8409,17.42755 L17.8409,20.80005 L11.2928,20.80005 Z M7.2002,16.79525 L7.2002,12.93805 C7.2002,12.75535 7.2343,12.57975 7.3025,12.41105 C7.3707,12.24245 7.473,12.10195 7.6095,11.98955 L13.7483,6.38287 C13.8575,6.27045 13.9838,6.18951 14.1273,6.14005 C14.2703,6.09115 14.4168,6.0667 14.5669,6.0667 C14.7169,6.0667 14.8637,6.09115 15.0072,6.14005 C15.1502,6.18951 15.2762,6.27045 15.3854,6.38287 L17.0224,7.87935 L7.2002,16.79525 Z M8.428,20.80005 C8.0869,20.80005 7.7972,20.67695 7.5587,20.43075 C7.3197,20.18515 7.2002,19.88665 7.2002,19.53535 L7.2002,17.93345 L10.4743,14.94045 L10.4743,20.80005 L8.428,20.80005 Z M18.6595,20.80005 L18.6595,13.88655 L15.1603,10.68275 L17.6363,8.42745 L21.5243,11.98955 C21.6607,12.11605 21.763,12.25995 21.8312,12.42125 C21.8994,12.58305 21.9335,12.75535 21.9335,12.93805 L21.9335,19.53535 C21.9335,19.88665 21.814,20.18515 21.575,20.43075 C21.3366,20.67695 21.0468,20.80005 20.7058,20.80005 L18.6595,20.80005 Z" id="Shape" fill="#F0B317"></path>
            <path d="M0.00019,15.60005 C0.00019,17.38595 0.35197,19.15445 1.03543,20.80445 C1.7189,22.45455 2.72066,23.95375 3.98354,25.21665 C5.24642,26.47955 6.74567,27.48135 8.3957,28.16475 C10.0457,28.84825 11.8142,29.20005 13.6002,29.20005 L13.6002,26.48005 C12.1714,26.48005 10.7566,26.19855 9.4366,25.65185 C8.1166,25.10505 6.91717,24.30365 5.90687,23.29335 C4.89657,22.28305 4.09516,21.08365 3.54838,19.76355 C3.00161,18.44355 2.72019,17.02875 2.72019,15.60005 L0.00019,15.60005 Z" id="Path" fill="#2F42ED"></path>
            <path d="M15.6002,29.20005 C17.3862,29.20005 19.1547,28.84825 20.8047,28.16485 C22.4547,27.48135 23.954,26.47955 25.2168,25.21675 C26.4797,23.95385 27.4815,22.45455 28.165,20.80455 C28.8484,19.15455 29.2002,17.38605 29.2002,15.60005 L26.4802,15.60005 C26.4802,17.02885 26.1988,18.44365 25.652,19.76365 C25.1052,21.08365 24.3038,22.28305 23.2935,23.29335 C22.2832,24.30365 21.0838,25.10505 19.7638,25.65185 C18.4438,26.19865 17.029,26.48005 15.6002,26.48005 L15.6002,29.20005 Z" id="Path" fill="#2F42ED"></path>
            <path d="M13.6,0 C11.814,0 10.0455,0.35177 8.3955,1.03524 C6.74548,1.7187 5.24622,2.72047 3.98335,3.98335 C2.72047,5.24623 1.7187,6.74548 1.03524,8.39555 C0.35177,10.04555 0,11.81405 0,13.60005 L2.72,13.60005 C2.72,12.17125 3.00142,10.75645 3.54819,9.43645 C4.09496,8.11635 4.89638,6.91698 5.90668,5.90668 C6.91698,4.89638 8.1164,4.09496 9.4364,3.54819 C10.7564,3.00142 12.1712,2.72 13.6,2.72 L13.6,0 Z" id="Path" fill="#2F42ED"></path>
            <path d="M29.2,13.60005 C29.2,11.81405 28.8482,10.04555 28.1648,8.39555 C27.4813,6.74553 26.4795,5.24627 25.2167,3.9834 C23.9538,2.72052 22.4545,1.71875 20.8045,1.03529 C19.1545,0.35182 17.386,5.00000024e-05 15.6,5.00000024e-05 L15.6,2.72005 C17.0288,2.72005 18.4436,3.00147 19.7636,3.54824 C21.0836,4.09501 22.283,4.89643 23.2933,5.90673 C24.3036,6.91703 25.105,8.11645 25.6518,9.43645 C26.1986,10.75645 26.48,12.17125 26.48,13.60005 L29.2,13.60005 Z" id="Path" fill="#2F42ED"></path>
        </g>
    </g>
</svg>